{
  "accessors": [
    {
      "bufferView": 2,
      "componentType": 5126,
      "count": 65532,
      "max": [
        2.2816176414489746,
        11.153169631958008,
        5.066880226135254
      ],
      "min": [
        -5.746045112609863,
        -8.878751754760742,
        0.026431560516357422
      ],
      "type": "VEC3"
    },
    {
      "bufferView": 2,
      "byteOffset": 786384,
      "componentType": 5126,
      "count": 65532,
      "max": [
        0.9999858140945435,
        0.9999880790710449,
        0.9999961853027344
      ],
      "min": [
        -0.9999980330467224,
        -0.999957799911499,
        -1.0
      ],
      "type": "VEC3"
    },
    {
      "bufferView": 1,
      "componentType": 5126,
      "count": 65532,
      "max": [
        0.9994869828224182,
        0.9702147245407104
      ],
      "min": [
        0.00048828125,
        0.0005150629440322518
      ],
      "type": "VEC2"
    },
    {
      "bufferView": 0,
      "componentType": 5125,
      "count": 249642,
      "type": "SCALAR"
    },
    {
      "bufferView": 2,
      "byteOffset": 1572768,
      "componentType": 5126,
      "count": 65532,
      "max": [
        2.281482219696045,
        11.153169631958008,
        5.198638916015625
      ],
      "min": [
        -5.74556827545166,
        -8.878772735595703,
        0.02640676498413086
      ],
      "type": "VEC3"
    },
    {
      "bufferView": 2,
      "byteOffset": 2359152,
      "componentType": 5126,
      "count": 65532,
      "max": [
        0.9999809265136719,
        0.9999939203262329,
        0.9999985098838806
      ],
      "min": [
        -0.9993153214454651,
        -0.9999203681945801,
        -1.0
      ],
      "type": "VEC3"
    },
    {
      "bufferView": 1,
      "byteOffset": 524256,
      "componentType": 5126,
      "count": 65532,
      "max": [
        0.999494731426239,
        0.9643553495407104
      ],
      "min": [
        0.00048828125,
        0.000624497071839869
      ],
      "type": "VEC2"
    },
    {
      "bufferView": 0,
      "byteOffset": 998568,
      "componentType": 5125,
      "count": 251598,
      "type": "SCALAR"
    },
    {
      "bufferView": 2,
      "byteOffset": 3145536,
      "componentType": 5126,
      "count": 65532,
      "max": [
        2.281482219696045,
        11.153169631958008,
        5.196995735168457
      ],
      "min": [
        -5.74556827545166,
        -8.878772735595703,
        0.02640676498413086
      ],
      "type": "VEC3"
    },
    {
      "bufferView": 2,
      "byteOffset": 3931920,
      "componentType": 5126,
      "count": 65532,
      "max": [
        0.9999810457229614,
        0.9999998807907104,
        0.9999999403953552
      ],
      "min": [
        -0.9998804330825806,
        -0.9999905228614807,
        -0.9999954104423523
      ],
      "type": "VEC3"
    },
    {
      "bufferView": 1,
      "byteOffset": 1048512,
      "componentType": 5126,
      "count": 65532,
      "max": [
        0.9995107650756836,
        0.9663084745407104
      ],
      "min": [
        0.00048828125,
        0.0004944397369399667
      ],
      "type": "VEC2"
    },
    {
      "bufferView": 0,
      "byteOffset": 2004960,
      "componentType": 5125,
      "count": 202539,
      "type": "SCALAR"
    },
    {
      "bufferView": 2,
      "byteOffset": 4718304,
      "componentType": 5126,
      "count": 65532,
      "max": [
        2.281482219696045,
        11.153169631958008,
        5.196995735168457
      ],
      "min": [
        -5.74556827545166,
        -6.184580326080322,
        0.026431560516357422
      ],
      "type": "VEC3"
    },
    {
      "bufferView": 2,
      "byteOffset": 5504688,
      "componentType": 5126,
      "count": 65532,
      "max": [
        0.9999992847442627,
        0.998670220375061,
        0.9999983310699463
      ],
      "min": [
        -0.9998762011528015,
        -0.9998795986175537,
        -1.0
      ],
      "type": "VEC3"
    },
    {
      "bufferView": 1,
      "byteOffset": 1572768,
      "componentType": 5126,
      "count": 65532,
      "max": [
        0.9994744062423706,
        0.9643553495407104
      ],
      "min": [
        0.00048828125,
        0.0005415274063125253
      ],
      "type": "VEC2"
    },
    {
      "bufferView": 0,
      "byteOffset": 2815116,
      "componentType": 5125,
      "count": 190818,
      "type": "SCALAR"
    },
    {
      "bufferView": 2,
      "byteOffset": 6291072,
      "componentType": 5126,
      "count": 2582,
      "max": [
        0.8879475593566895,
        3.1036458015441895,
        2.7508249282836914
      ],
      "min": [
        -1.7335944175720215,
        -2.921539783477783,
        0.37486696243286133
      ],
      "type": "VEC3"
    },
    {
      "bufferView": 2,
      "byteOffset": 6322056,
      "componentType": 5126,
      "count": 2582,
      "max": [
        0.99698805809021,
        0.9998950362205505,
        0.9997007846832275
      ],
      "min": [
        -0.9256096482276917,
        -0.9983453750610352,
        -0.923425018787384
      ],
      "type": "VEC3"
    },
    {
      "bufferView": 1,
      "byteOffset": 2097024,
      "componentType": 5126,
      "count": 2582,
      "max": [
        0.9990765452384949,
        0.9624022245407104
      ],
      "min": [
        0.00244140625,
        0.006879169959574938
      ],
      "type": "VEC2"
    },
    {
      "bufferView": 0,
      "byteOffset": 3578388,
      "componentType": 5125,
      "count": 5187,
      "type": "SCALAR"
    }
  ],
  "asset": {
    "extras": {
      "author": "Maksym Khovalko (https://sketchfab.com/maksymk)",
      "license": "COPYRIGHT TO Maksym Khovalko",
      "source": "https://sketchfab.com/3d-models/kyiv-obolon-25022022-civilian-car-17df2244a95e4e71b2b240a04d471231",
      "title": "Kyiv, Obolon 25/02/2022 - Civilian Car"
    },
    "generator": "Sketchfab-12.66.0",
    "version": "2.0"
  },
  "bufferViews": [
    {
      "buffer": 0,
      "byteLength": 3599136,
      "name": "floatBufferViews",
      "target": 34963
    },
    {
      "buffer": 0,
      "byteLength": 2117680,
      "byteOffset": 3599136,
      "byteStride": 8,
      "name": "floatBufferViews",
      "target": 34962
    },
    {
      "buffer": 0,
      "byteLength": 6353040,
      "byteOffset": 5716816,
      "byteStride": 12,
      "name": "floatBufferViews",
      "target": 34962
    }
  ],
  "buffers": [
    {
      "byteLength": 12069856,
      "uri": "scene.bin"
    }
  ],
  "extensionsUsed": [
    "KHR_materials_unlit"
  ],
  "images": [
    {
      "uri": "textures/tex_u1_v1_baseColor.jpeg"
    }
  ],
  "materials": [
    {
      "doubleSided": true,
      "extensions": {
        "KHR_materials_unlit": {}
      },
      "name": "tex_u1_v1",
      "pbrMetallicRoughness": {
        "baseColorTexture": {
          "index": 0
        },
        "metallicFactor": 0.0
      }
    }
  ],
  "meshes": [
    {
      "name": "Object_0",
      "primitives": [
        {
          "attributes": {
            "NORMAL": 1,
            "POSITION": 0,
            "TEXCOORD_0": 2
          },
          "indices": 3,
          "material": 0,
          "mode": 4
        }
      ]
    },
    {
      "name": "Object_1",
      "primitives": [
        {
          "attributes": {
            "NORMAL": 5,
            "POSITION": 4,
            "TEXCOORD_0": 6
          },
          "indices": 7,
          "material": 0,
          "mode": 4
        }
      ]
    },
    {
      "name": "Object_2",
      "primitives": [
        {
          "attributes": {
            "NORMAL": 9,
            "POSITION": 8,
            "TEXCOORD_0": 10
          },
          "indices": 11,
          "material": 0,
          "mode": 4
        }
      ]
    },
    {
      "name": "Object_3",
      "primitives": [
        {
          "attributes": {
            "NORMAL": 13,
            "POSITION": 12,
            "TEXCOORD_0": 14
          },
          "indices": 15,
          "material": 0,
          "mode": 4
        }
      ]
    },
    {
      "name": "Object_4",
      "primitives": [
        {
          "attributes": {
            "NORMAL": 17,
            "POSITION": 16,
            "TEXCOORD_0": 18
          },
          "indices": 19,
          "material": 0,
          "mode": 4
        }
      ]
    }
  ],
  "nodes": [
    {
      "children": [
        1
      ],
      "matrix": [
        1.0,
        0.0,
        0.0,
        0.0,
        0.0,
        2.220446049250313e-16,
        -1.0,
        0.0,
        0.0,
        1.0,
        2.220446049250313e-16,
        0.0,
        0.0,
        0.0,
        0.0,
        1.0
      ],
      "name": "Sketchfab_model"
    },
    {
      "children": [
        2,
        3,
        4,
        5,
        6
      ],
      "name": "model.obj.cleaner.materialmerger.gles"
    },
    {
      "mesh": 0,
      "name": "Object_2"
    },
    {
      "mesh": 1,
      "name": "Object_3"
    },
    {
      "mesh": 2,
      "name": "Object_4"
    },
    {
      "mesh": 3,
      "name": "Object_5"
    },
    {
      "mesh": 4,
      "name": "Object_6"
    }
  ],
  "samplers": [
    {
      "magFilter": 9729,
      "minFilter": 9987,
      "wrapS": 10497,
      "wrapT": 10497
    }
  ],
  "scene": 0,
  "scenes": [
    {
      "name": "Sketchfab_Scene",
      "nodes": [
        0
      ]
    }
  ],
  "textures": [
    {
      "sampler": 0,
      "source": 0
    }
  ]
}
