{
  "accessors": [
    {
      "bufferView": 2,
      "componentType": 5126,
      "count": 65532,
      "max": [
        436.1056823730469,
        743.2861328125,
        348.0726318359375
      ],
      "min": [
        -482.99725341796875,
        -42.75929260253906,
        -813.0244750976563
      ],
      "type": "VEC3"
    },
    {
      "bufferView": 2,
      "byteOffset": 786384,
      "componentType": 5126,
      "count": 65532,
      "max": [
        0.9999996423721313,
        0.9999947547912598,
        0.9999997019767761
      ],
      "min": [
        -0.9999989867210388,
        -0.9999997019767761,
        -0.9999998807907104
      ],
      "type": "VEC3"
    },
    {
      "bufferView": 1,
      "componentType": 5126,
      "count": 65532,
      "max": [
        0.9999998211860657,
        0.9954115152359009
      ],
      "min": [
        2.4472334189340472e-05,
        0.0006830692291259766
      ],
      "type": "VEC2"
    },
    {
      "bufferView": 0,
      "componentType": 5125,
      "count": 301212,
      "type": "SCALAR"
    },
    {
      "bufferView": 2,
      "byteOffset": 1572768,
      "componentType": 5126,
      "count": 27992,
      "max": [
        436.0885925292969,
        714.3463134765625,
        348.0726318359375
      ],
      "min": [
        -480.12384033203125,
        -42.75929260253906,
        -813.0244750976563
      ],
      "type": "VEC3"
    },
    {
      "bufferView": 2,
      "byteOffset": 1908672,
      "componentType": 5126,
      "count": 27992,
      "max": [
        0.9999979734420776,
        0.9999978542327881,
        0.9999980330467224
      ],
      "min": [
        -0.9999982714653015,
        -0.9999995231628418,
        -0.9999992251396179
      ],
      "type": "VEC3"
    },
    {
      "bufferView": 1,
      "byteOffset": 524256,
      "componentType": 5126,
      "count": 27992,
      "max": [
        0.9999916553497314,
        0.9959295392036438
      ],
      "min": [
        5.0371745601296425e-06,
        0.0001424551010131836
      ],
      "type": "VEC2"
    },
    {
      "bufferView": 0,
      "byteOffset": 1204848,
      "componentType": 5125,
      "count": 85368,
      "type": "SCALAR"
    },
    {
      "bufferView": 2,
      "byteOffset": 2244576,
      "componentType": 5126,
      "count": 65532,
      "max": [
        436.11224365234375,
        776.0565795898438,
        348.07281494140625
      ],
      "min": [
        -483.9494323730469,
        -36.019561767578125,
        -805.802978515625
      ],
      "type": "VEC3"
    },
    {
      "bufferView": 2,
      "byteOffset": 3030960,
      "componentType": 5126,
      "count": 65532,
      "max": [
        0.9999973773956299,
        0.9999986290931702,
        0.9999997615814209
      ],
      "min": [
        -1.0,
        -1.0,
        -1.0
      ],
      "type": "VEC3"
    },
    {
      "bufferView": 1,
      "byteOffset": 748192,
      "componentType": 5126,
      "count": 65532,
      "max": [
        0.99607914686203,
        0.9999991655349731
      ],
      "min": [
        0.0001387074589729309,
        2.2649765014648438e-06
      ],
      "type": "VEC2"
    },
    {
      "bufferView": 0,
      "byteOffset": 1546320,
      "componentType": 5125,
      "count": 300423,
      "type": "SCALAR"
    },
    {
      "bufferView": 2,
      "byteOffset": 3817344,
      "componentType": 5126,
      "count": 24550,
      "max": [
        436.0885925292969,
        769.4387817382813,
        348.0726318359375
      ],
      "min": [
        -484.4089050292969,
        -42.75929260253906,
        -809.7933959960938
      ],
      "type": "VEC3"
    },
    {
      "bufferView": 2,
      "byteOffset": 4111944,
      "componentType": 5126,
      "count": 24550,
      "max": [
        0.9999995231628418,
        0.9999902844429016,
        0.9999983310699463
      ],
      "min": [
        -0.9999992847442627,
        -0.9999959468841553,
        -0.9999986290931702
      ],
      "type": "VEC3"
    },
    {
      "bufferView": 1,
      "byteOffset": 1272448,
      "componentType": 5126,
      "count": 24550,
      "max": [
        0.9944046139717102,
        0.9999969601631165
      ],
      "min": [
        1.5981495380401611e-06,
        1.0013580322265625e-05
      ],
      "type": "VEC2"
    },
    {
      "bufferView": 0,
      "byteOffset": 2748012,
      "componentType": 5125,
      "count": 72132,
      "type": "SCALAR"
    }
  ],
  "asset": {
    "extras": {
      "author": "MrUnity (https://sketchfab.com/MrUnityCreations)",
      "license": "CC-BY-4.0 (http://creativecommons.org/licenses/by/4.0/)",
      "source": "https://sketchfab.com/3d-models/my-vault-in-ukraine-stopwar-e8a409a4fed94e9b9a859249446833eb",
      "title": "My Vault in Ukraine #stopwar"
    },
    "generator": "Sketchfab-12.66.0",
    "version": "2.0"
  },
  "bufferViews": [
    {
      "buffer": 0,
      "byteLength": 3036540,
      "name": "floatBufferViews",
      "target": 34963
    },
    {
      "buffer": 0,
      "byteLength": 1468848,
      "byteOffset": 3036540,
      "byteStride": 8,
      "name": "floatBufferViews",
      "target": 34962
    },
    {
      "buffer": 0,
      "byteLength": 4406544,
      "byteOffset": 4505388,
      "byteStride": 12,
      "name": "floatBufferViews",
      "target": 34962
    }
  ],
  "buffers": [
    {
      "byteLength": 8911932,
      "uri": "scene.bin"
    }
  ],
  "extensionsUsed": [
    "KHR_materials_unlit"
  ],
  "images": [
    {
      "uri": "textures/material1_baseColor.jpeg"
    },
    {
      "uri": "textures/material0_baseColor.jpeg"
    }
  ],
  "materials": [
    {
      "doubleSided": true,
      "extensions": {
        "KHR_materials_unlit": {}
      },
      "name": "material1",
      "pbrMetallicRoughness": {
        "baseColorTexture": {
          "index": 0
        },
        "metallicFactor": 0.0
      }
    },
    {
      "doubleSided": true,
      "extensions": {
        "KHR_materials_unlit": {}
      },
      "name": "material0",
      "pbrMetallicRoughness": {
        "baseColorTexture": {
          "index": 1
        },
        "metallicFactor": 0.0
      }
    }
  ],
  "meshes": [
    {
      "name": "Model_material1_0",
      "primitives": [
        {
          "attributes": {
            "NORMAL": 1,
            "POSITION": 0,
            "TEXCOORD_0": 2
          },
          "indices": 3,
          "material": 0,
          "mode": 4
        }
      ]
    },
    {
      "name": "Model_material1_0",
      "primitives": [
        {
          "attributes": {
            "NORMAL": 5,
            "POSITION": 4,
            "TEXCOORD_0": 6
          },
          "indices": 7,
          "material": 0,
          "mode": 4
        }
      ]
    },
    {
      "name": "Model_material0_0",
      "primitives": [
        {
          "attributes": {
            "NORMAL": 9,
            "POSITION": 8,
            "TEXCOORD_0": 10
          },
          "indices": 11,
          "material": 1,
          "mode": 4
        }
      ]
    },
    {
      "name": "Model_material0_0",
      "primitives": [
        {
          "attributes": {
            "NORMAL": 13,
            "POSITION": 12,
            "TEXCOORD_0": 14
          },
          "indices": 15,
          "material": 1,
          "mode": 4
        }
      ]
    }
  ],
  "nodes": [
    {
      "children": [
        1
      ],
      "matrix": [
        1.0,
        0.0,
        0.0,
        0.0,
        0.0,
        2.220446049250313e-16,
        -1.0,
        0.0,
        0.0,
        1.0,
        2.220446049250313e-16,
        0.0,
        0.0,
        0.0,
        0.0,
        1.0
      ],
      "name": "Sketchfab_model"
    },
    {
      "children": [
        2
      ],
      "matrix": [
        0.009999999776482582,
        0.0,
        0.0,
        0.0,
        0.0,
        0.0,
        0.009999999776482582,
        0.0,
        0.0,
        -0.009999999776482582,
        0.0,
        0.0,
        0.0,
        0.0,
        0.0,
        1.0
      ],
      "name": "0259abd9f169497faa0c3d13f9bd14ef.fbx"
    },
    {
      "children": [
        3
      ],
      "name": "RootNode"
    },
    {
      "children": [
        4,
        5,
        6,
        7
      ],
      "name": "Model"
    },
    {
      "mesh": 0,
      "name": "Model_material1_0"
    },
    {
      "mesh": 1,
      "name": "Model_material1_0"
    },
    {
      "mesh": 2,
      "name": "Model_material0_0"
    },
    {
      "mesh": 3,
      "name": "Model_material0_0"
    }
  ],
  "samplers": [
    {
      "magFilter": 9729,
      "minFilter": 9987,
      "wrapS": 10497,
      "wrapT": 10497
    }
  ],
  "scene": 0,
  "scenes": [
    {
      "name": "Sketchfab_Scene",
      "nodes": [
        0
      ]
    }
  ],
  "textures": [
    {
      "sampler": 0,
      "source": 0
    },
    {
      "sampler": 0,
      "source": 1
    }
  ]
}
